<?xml version="1.0" standalone="no"?>
<!DOCTYPE svg PUBLIC "-//W3C//DTD SVG 20010904//EN"
 "http://www.w3.org/TR/2001/REC-SVG-20010904/DTD/svg10.dtd">
<svg version="1.0" xmlns="http://www.w3.org/2000/svg"
 width="224.000000pt" height="224.000000pt" viewBox="0 0 224.000000 224.000000"
 preserveAspectRatio="xMidYMid meet">

<g transform="translate(0.000000,224.000000) scale(0.100000,-0.100000)"
fill="#000000" stroke="none">
<path d="M1020 2205 c0 -8 -4 -15 -10 -15 -5 0 -10 -7 -10 -16 0 -13 -5 -12
-31 6 -35 25 -46 21 -29 -10 6 -12 9 -24 7 -27 -3 -2 -33 10 -67 27 -52 26
-62 29 -55 13 4 -10 10 -27 13 -38 l5 -20 -23 20 -23 20 7 -22 c9 -29 -1 -29
-59 -1 -24 12 -48 19 -52 15 -4 -4 3 -28 15 -52 l22 -45 -23 0 c-12 0 -51 7
-86 15 -35 9 -66 13 -69 10 -3 -3 7 -22 22 -42 l26 -38 -52 -8 c-29 -4 -61 -6
-70 -3 -27 6 -22 -19 7 -42 14 -11 25 -22 25 -24 0 -2 -17 -2 -37 0 -36 4 -37
3 -18 -11 20 -15 19 -16 -10 -27 -16 -7 -41 -16 -55 -20 -25 -7 -24 -7 11 -22
20 -9 39 -20 43 -26 3 -5 -20 -22 -50 -37 -56 -27 -56 -28 -33 -41 13 -7 20
-14 14 -14 -5 -1 -2 -4 7 -8 15 -6 9 -16 -35 -66 -54 -63 -55 -61 20 -40 20 5
18 -1 -19 -71 -39 -75 -44 -100 -13 -75 11 9 15 9 15 1 0 -26 -29 -79 -56
-101 l-29 -23 27 7 c14 3 33 9 42 12 22 8 20 -4 -9 -70 -31 -71 -31 -81 -1
-60 l25 16 -6 -70 c-3 -39 -3 -79 1 -89 7 -16 9 -14 21 12 l13 30 3 -30 c1
-16 1 -43 0 -60 l-1 -30 14 25 15 25 1 -27 c0 -29 15 -45 25 -28 13 20 23 -1
15 -29 -4 -16 -6 -31 -4 -33 2 -2 5 -14 7 -27 2 -12 9 -26 16 -30 8 -6 9 -15
2 -34 -9 -24 -7 -28 22 -43 18 -9 35 -22 39 -28 13 -18 5 -76 -10 -76 -7 0
-10 5 -6 11 3 6 -16 34 -43 62 -59 61 -98 126 -85 139 6 6 6 25 2 45 -9 38
-20 55 -20 31 0 -24 -44 -28 -71 -7 -31 24 -119 27 -119 4 0 -17 -16 -20 -25
-5 -10 16 -43 11 -57 -8 -7 -11 -26 -23 -43 -29 -26 -9 -30 -15 -28 -44 1 -19
12 -68 25 -109 l24 -75 44 -3 c24 -2 54 2 67 9 19 10 26 9 42 -5 21 -19 32
-20 111 -11 33 4 63 15 76 26 19 18 22 18 34 4 12 -14 11 -18 -1 -27 -11 -7
-9 -9 8 -5 18 4 22 0 25 -22 2 -15 9 -26 18 -26 9 0 14 -8 12 -19 -2 -10 1
-22 7 -25 11 -7 18 -198 7 -208 -3 -4 -14 0 -23 9 -21 17 -159 26 -149 9 6 -9
-31 -37 -39 -29 -2 2 3 18 12 37 20 39 13 46 -57 55 -26 4 -60 16 -74 27 l-26
20 9 -23 c9 -24 61 -46 115 -47 23 -1 27 -4 21 -19 -27 -67 -27 -83 1 -113 15
-16 34 -29 41 -29 8 0 11 -4 8 -10 -3 -5 6 -12 20 -16 13 -3 23 -10 20 -14 -6
-10 86 -80 142 -108 l41 -21 6 30 c8 40 0 52 -26 38 -18 -10 -20 -9 -15 6 4 9
7 18 7 21 0 2 8 0 17 -3 16 -6 16 -5 4 10 -7 9 -11 26 -8 38 7 26 -2 51 -15
43 -10 -6 -9 17 4 139 4 31 25 18 37 -23 6 -21 16 -42 22 -46 8 -4 8 0 0 14
-13 24 -14 52 -3 52 9 0 104 -189 152 -302 18 -43 36 -76 40 -73 3 2 6 -6 6
-18 -1 -14 6 -22 19 -24 11 -1 14 0 8 3 -7 3 -13 17 -13 32 0 20 3 23 12 14
15 -15 31 -16 22 0 -5 7 -3 8 5 4 7 -5 10 -14 7 -22 -3 -8 -1 -14 4 -14 9 0
14 28 11 56 -1 6 20 -9 46 -33 76 -71 88 -76 167 -79 98 -2 136 5 137 25 0 10
2 11 6 4 7 -18 40 -16 47 2 3 8 2 15 -3 15 -21 0 2 75 27 85 14 5 14 4 -1 -12
-10 -12 -16 -34 -14 -61 1 -44 14 -53 40 -27 11 10 17 11 19 3 3 -8 10 -8 26
1 13 7 20 16 17 21 -3 5 -1 11 5 15 6 4 8 11 4 16 -3 5 5 20 17 33 12 13 24
32 25 44 2 11 17 46 34 78 16 32 30 64 30 71 0 6 15 43 34 80 18 37 37 79 41
93 6 22 5 23 -7 10 -9 -8 -69 -82 -135 -165 -66 -82 -145 -174 -176 -202 l-56
-53 -106 5 c-58 3 -114 9 -124 14 -9 5 -36 31 -60 58 -117 133 -170 191 -211
230 -25 23 -45 47 -45 52 0 5 -9 17 -21 27 -22 20 -69 177 -81 269 -7 63 -18
84 -48 95 -22 8 -23 13 -15 35 13 35 13 35 -10 35 -16 0 -20 7 -20 33 0 18 5
38 11 44 8 8 7 17 -4 34 -20 32 -5 81 18 58 7 -8 23 -50 34 -94 l21 -80 -5 60
c-5 55 -4 58 10 41 14 -19 15 -17 16 30 0 36 3 44 9 29 10 -24 10 -24 17 40 2
28 6 51 7 53 2 1 13 -7 26 -18 17 -14 26 -17 31 -9 4 6 12 8 19 4 9 -6 9 -9 1
-15 -7 -4 -14 -21 -16 -38 -3 -23 1 -32 13 -35 16 -4 15 -5 0 -6 -10 0 -18 -6
-18 -11 0 -7 17 -8 48 -4 27 3 84 -1 137 -10 59 -10 93 -12 99 -6 7 7 4 10 -9
10 -10 0 -16 3 -12 6 3 3 19 3 35 -1 24 -5 29 -10 25 -28 -5 -22 -5 -22 10 -2
14 17 19 18 37 7 20 -12 20 -11 18 45 -1 32 1 64 5 70 13 21 -22 61 -59 68
-33 6 -35 8 -29 33 4 15 7 35 7 45 -1 34 25 16 38 -25 7 -24 15 -37 17 -30 4
10 8 10 19 1 11 -9 14 -7 14 15 0 14 -4 26 -10 26 -13 0 -13 47 -1 55 10 5 24
-25 19 -41 -1 -5 5 -31 14 -59 9 -27 19 -63 23 -80 8 -37 17 -22 34 57 15 69
31 85 25 26 -4 -40 -4 -41 8 -18 11 21 60 72 64 67 1 -1 4 -19 8 -40 6 -34 4
-38 -19 -47 -22 -9 -32 -31 -26 -64 1 -4 -4 -14 -10 -22 -6 -8 -8 -14 -3 -14
5 0 10 -14 11 -32 3 -33 42 -82 50 -62 2 8 17 9 46 3 23 -4 51 -8 62 -8 l20 0
-20 9 c-17 7 -16 9 10 10 l30 2 -35 9 c-19 4 -51 5 -71 2 -22 -3 -39 -1 -43 6
-5 7 2 11 16 11 13 0 28 4 34 9 16 17 64 21 64 6 0 -20 20 -29 33 -16 16 16
27 14 21 -4 -9 -22 13 -18 29 5 11 16 21 19 46 14 44 -9 24 -31 -37 -41 l-47
-7 40 -6 c45 -6 68 -2 59 11 -3 5 3 9 13 9 10 0 25 5 33 11 12 9 12 10 -4 5
-15 -5 -17 -4 -7 7 9 12 1 17 -47 31 -65 18 -217 22 -207 6 3 -5 1 -10 -4 -10
-6 0 -11 7 -11 15 0 10 10 15 33 15 17 1 57 7 87 15 l55 15 -65 -5 c-36 -2
-76 -7 -90 -10 -16 -3 -11 2 15 15 26 13 51 18 71 15 17 -3 58 3 93 14 50 15
61 16 61 5 0 -8 5 -14 10 -14 6 0 10 5 10 11 0 6 10 9 23 7 16 -2 22 -9 21
-25 -1 -27 11 -30 25 -5 13 22 14 5 2 -56 -8 -42 -8 -43 12 -25 19 18 19 17
12 -17 -6 -30 -1 -25 38 37 68 108 80 122 105 123 l23 0 -24 -32 c-14 -18 -34
-52 -46 -75 -18 -36 -19 -43 -6 -43 9 0 15 9 15 25 0 14 5 25 11 25 5 0 7 5 4
11 -4 6 2 13 14 16 13 3 21 13 21 27 0 17 2 18 10 6 6 -9 6 -18 0 -24 -13 -13
-13 -29 -1 -21 9 5 8 -19 -4 -97 -3 -16 -1 -28 4 -28 4 0 11 33 14 72 4 40 11
74 17 76 5 2 10 24 10 48 0 45 7 53 28 32 22 -22 24 1 3 28 -29 37 -27 43 20
50 l41 7 -31 24 c-17 14 -31 28 -31 32 0 3 15 15 33 26 l32 19 -30 6 -30 6 35
22 c31 20 32 22 12 22 -13 0 -33 5 -44 11 -19 10 -18 13 23 40 l44 29 -39 0
-39 0 39 35 c38 33 38 34 14 35 -14 1 -19 4 -12 7 18 7 15 23 -5 23 -14 1 -12
6 10 25 l28 25 -25 0 c-33 0 -33 11 0 49 l26 31 -36 0 c-41 0 -41 0 -20 42
l16 31 -27 -7 -27 -7 27 46 c15 26 25 49 22 52 -3 2 -19 -3 -36 -11 -46 -24
-50 -20 -36 28 8 24 11 47 8 50 -4 3 -27 6 -52 6 -42 0 -44 1 -25 16 19 15 19
16 -1 9 -11 -3 -33 -9 -49 -12 l-29 -6 5 46 5 46 -43 -6 -44 -6 6 32 c7 34 1
37 -36 16 -37 -21 -42 -18 -35 15 7 32 -5 39 -25 15 -16 -20 -30 -19 -30 2 0
14 -2 14 -20 -2 -19 -18 -20 -17 -20 6 0 13 -5 31 -10 39 -8 12 -14 10 -38
-13 -21 -21 -31 -25 -35 -15 -3 10 -9 8 -20 -7 -15 -19 -17 -19 -34 22 -10 24
-21 43 -24 43 -3 0 -14 -18 -24 -40 -10 -22 -22 -40 -26 -40 -5 0 -20 21 -35
46 -29 49 -35 48 -54 -9 l-12 -37 -29 22 c-97 77 -99 78 -99 53z m308 -116
c-16 -10 -42 57 -32 81 4 10 12 2 25 -29 16 -35 17 -46 7 -52z m-228 60 c0 -6
-4 -7 -10 -4 -5 3 -10 11 -10 16 0 6 5 7 10 4 6 -3 10 -11 10 -16z m133 -39
c3 -11 2 -20 -3 -20 -8 0 -20 24 -20 41 0 17 17 1 23 -21z m210 1 c19 -32 22
-56 7 -46 -5 3 -10 15 -10 26 0 10 -4 19 -10 19 -5 0 -10 -4 -10 -10 0 -5 -4
-10 -10 -10 -11 0 -14 33 -3 43 11 12 18 8 36 -22z m149 -57 c-5 -9 -7 -26 -4
-38 4 -21 4 -21 -11 -1 -14 18 -14 22 0 38 20 22 27 22 15 1z m-807 -4 c3 -5
1 -10 -4 -10 -6 0 -11 5 -11 10 0 6 2 10 4 10 3 0 8 -4 11 -10z m80 -8 c-3 -3
-11 0 -18 7 -9 10 -8 11 6 5 10 -3 15 -9 12 -12z m258 -25 c15 -6 25 -37 11
-37 -18 0 -46 25 -60 53 l-17 32 24 -21 c13 -12 32 -24 42 -27z m-148 23 c3
-6 -1 -7 -9 -4 -18 7 -21 14 -7 14 6 0 13 -4 16 -10z m-51 -9 c4 -5 -3 -7 -14
-4 -23 6 -26 13 -6 13 8 0 17 -4 20 -9z m370 -17 c8 -21 -7 -17 -21 6 -11 16
-10 18 1 14 8 -3 17 -12 20 -20z m367 -21 c-9 -16 -10 -16 -11 -1 0 9 3 25 7
35 7 16 8 17 11 1 2 -10 -1 -25 -7 -35z m-899 25 c26 -8 35 -14 26 -20 -9 -5
-7 -8 7 -8 13 0 21 -7 22 -19 1 -16 -3 -17 -50 -9 -63 12 -72 18 -26 18 l34 1
-35 12 c-19 7 -44 18 -55 25 -19 11 -18 11 9 12 16 0 46 -5 68 -12z m238 -6
c0 -4 -9 -8 -19 -8 -11 0 -17 4 -15 8 3 4 12 8 20 8 8 0 14 -4 14 -8z m564
-34 c3 -13 6 -27 6 -33 -1 -15 -30 27 -30 42 0 22 17 15 24 -9z m75 -46 c1
-13 -3 -20 -9 -17 -5 3 -10 25 -9 48 1 36 2 38 9 17 4 -14 8 -35 9 -48z m-695
42 c24 -23 19 -27 -9 -8 -14 9 -25 18 -25 20 0 10 20 3 34 -12z m349 -31 c16
-5 25 -33 10 -33 -5 0 -28 19 -53 41 -41 37 -42 39 -10 19 19 -12 43 -24 53
-27z m7 17 c0 -14 -14 -12 -28 2 -19 19 -14 30 8 18 11 -6 20 -15 20 -20z
m-660 10 c12 -8 10 -9 -10 -9 -14 1 -38 5 -55 9 -29 7 -29 8 10 9 22 0 47 -4
55 -9z m473 -7 c18 -9 40 -17 49 -17 10 -1 18 -5 19 -11 0 -5 14 -18 30 -29
17 -10 28 -21 25 -23 -6 -6 -135 63 -156 83 -19 19 -6 18 33 -3z m307 -14 c0
-5 -4 -9 -10 -9 -5 0 -10 7 -10 16 0 8 5 12 10 9 6 -3 10 -10 10 -16z m-512
-14 c20 -14 48 -25 63 -25 14 0 34 -10 45 -22 l19 -21 -35 7 c-44 8 -165 86
-134 86 3 0 22 -11 42 -25z m112 15 c8 -5 11 -10 5 -10 -5 0 -17 5 -25 10 -8
5 -10 10 -5 10 6 0 17 -5 25 -10z m365 -58 c-7 -7 -34 18 -47 42 -8 16 -3 14
21 -8 17 -16 29 -32 26 -34z m-551 32 c9 -23 1 -28 -24 -14 -18 10 -20 14 -9
21 20 12 26 11 33 -7z m706 -38 c-1 -6 -10 0 -20 13 -11 13 -20 28 -20 35 1 6
10 0 20 -13 11 -13 20 -28 20 -35z m150 44 c0 -5 -5 -10 -11 -10 -5 0 -7 5 -4
10 3 6 8 10 11 10 2 0 4 -4 4 -10z m35 -11 c-9 -13 2 -11 35 6 39 20 38 12 -1
-16 -26 -18 -33 -19 -40 -8 -12 19 -11 42 1 34 6 -4 8 -11 5 -16z m-991 3 c3
-5 -14 -9 -37 -10 -32 0 -37 1 -22 8 26 11 53 12 59 2z m725 -28 c12 -20 20
-39 17 -41 -5 -5 -46 57 -46 70 0 15 8 6 29 -29z m-165 11 c16 -12 17 -15 4
-15 -8 0 -21 7 -28 15 -16 19 -1 19 24 0z m-697 -1 c-3 -3 -12 -4 -19 -1 -8 3
-5 6 6 6 11 1 17 -2 13 -5z m611 -39 c61 -22 86 -35 65 -35 -6 0 -27 7 -48 16
-61 25 -63 10 -2 -19 58 -27 78 -44 31 -27 -42 16 -68 31 -89 52 -11 10 -29
26 -40 34 l-20 16 20 -8 c11 -4 48 -17 83 -29z m404 0 c11 -14 10 -45 -1 -45
-8 0 -51 64 -51 76 0 6 44 -19 52 -31z m78 5 c0 -16 -4 -30 -8 -30 -5 0 -7 14
-4 30 2 17 6 30 8 30 2 0 4 -13 4 -30z m-1180 10 c0 -5 -12 -10 -27 -10 -22 0
-25 2 -13 10 20 13 40 13 40 0z m235 -10 c8 -13 -5 -13 -25 0 -13 8 -13 10 2
10 9 0 20 -4 23 -10z m-60 -9 c-10 -8 -157 -41 -163 -36 -1 1 21 11 50 23 54
21 130 30 113 13z m1069 -16 c-15 -23 -34 -33 -34 -18 0 10 32 43 42 43 5 0 1
-11 -8 -25z m-640 -12 c6 3 22 -4 35 -14 13 -11 20 -19 17 -19 -4 0 -2 -9 4
-20 13 -24 10 -25 -34 -3 -19 9 -33 20 -30 25 3 4 -3 5 -12 1 -11 -4 -15 -2
-11 4 4 6 -12 16 -36 23 -65 21 -67 31 -2 14 31 -8 63 -13 69 -11z m436 -6 c0
-5 -7 -6 -16 -3 -9 3 -20 6 -25 6 -5 0 -9 7 -9 15 0 12 4 13 25 3 14 -6 25
-15 25 -21z m-811 14 c12 -8 9 -11 -12 -16 -22 -6 -25 -10 -16 -26 5 -10 17
-19 27 -20 12 0 13 -2 4 -6 -10 -4 1 -21 34 -54 51 -52 72 -63 54 -28 -7 11
-9 23 -6 26 3 3 10 -7 16 -22 7 -18 15 -25 25 -21 8 3 25 2 37 -3 22 -8 21 -9
-12 -19 -19 -6 -28 -11 -20 -11 9 -1 3 -9 -15 -21 -25 -16 -42 -19 -95 -15
-45 3 -57 2 -40 -4 42 -15 116 -13 130 4 7 8 19 15 27 15 7 0 16 7 19 15 4 8
18 15 32 15 l26 0 -22 -16 c-12 -8 -20 -20 -17 -25 4 -5 -8 -9 -24 -9 -17 0
-31 -4 -31 -10 0 -5 7 -10 15 -10 20 0 19 -8 -5 -48 -13 -21 -17 -38 -12 -48
6 -11 14 -2 32 36 15 33 30 50 41 50 41 0 -10 -117 -70 -161 -37 -27 -30 -44
9 -24 34 18 54 19 44 4 -13 -21 -53 -182 -48 -191 9 -14 24 2 24 27 0 35 16
39 39 9 40 -51 26 -60 -79 -54 -25 2 -54 4 -65 6 -11 1 -23 3 -27 3 -5 1 -8
11 -8 24 0 14 -9 26 -25 34 -20 9 -25 8 -25 -2 0 -7 9 -15 20 -18 29 -7 25
-34 -6 -41 -29 -8 -64 16 -64 41 0 8 -7 21 -15 29 -13 13 -21 71 -16 109 1 6
-6 1 -15 -10 -15 -19 -16 -17 -9 29 l7 48 -35 -34 c-18 -19 -39 -43 -45 -54
-6 -10 -14 -15 -18 -11 -4 4 4 20 17 35 38 41 133 166 121 158 -14 -9 -73 14
-66 26 4 6 -6 8 -27 4 l-34 -6 37 14 c20 8 52 21 70 29 18 9 40 18 48 20 8 3
3 6 -11 6 -24 1 -65 31 -41 31 5 0 25 2 43 5 l34 5 -30 -14 c-29 -15 -28 -15
45 -15 l75 0 -38 14 c-21 8 -55 27 -75 43 -37 29 -102 47 -118 33 -5 -4 -27
-18 -48 -31 -56 -33 -37 -10 27 34 49 34 71 40 150 45 9 1 17 8 17 16 0 14
-23 20 -64 16 -16 -1 -14 2 8 20 15 12 35 19 46 16 11 -3 18 -1 14 4 -7 12 17
11 35 0z m1131 0 c0 -5 -9 -11 -21 -14 -16 -4 -18 -3 -8 9 13 16 29 19 29 5z
m-505 -22 c25 -11 44 -23 42 -26 -3 -2 -16 0 -29 7 -22 11 -22 10 -4 -4 11 -9
24 -16 30 -16 5 0 7 -3 4 -6 -9 -8 -59 20 -82 45 -24 26 -20 26 39 0z m305 1
c0 -5 -4 -10 -10 -10 -5 0 -10 5 -10 10 0 6 5 10 10 10 6 0 10 -4 10 -10z m24
-26 c-22 -32 -25 -30 -13 6 6 16 15 27 20 24 5 -3 2 -16 -7 -30z m-775 -66
c18 -16 37 -28 43 -28 5 0 6 -5 3 -10 -4 -7 3 -9 22 -5 22 5 25 4 13 -5 -11
-8 1 -9 53 -4 45 4 67 3 67 -4 0 -16 -62 -25 -102 -16 -18 4 -42 8 -53 10 -56
9 -111 33 -121 53 -7 13 -17 28 -23 34 -18 18 -13 31 7 16 16 -13 16 -13 0 7
-33 38 -18 47 20 13 22 -19 54 -46 71 -61z m74 70 c28 -14 14 -20 -18 -8 -38
15 -43 6 -5 -10 16 -7 30 -16 30 -21 0 -7 -93 42 -110 58 -8 7 84 -9 103 -19z
m593 -45 c-9 -10 -35 6 -47 28 l-11 22 31 -23 c18 -12 30 -24 27 -27z m67 32
c4 -8 2 -17 -2 -20 -5 -2 -11 4 -14 15 -6 23 8 27 16 5z m-1108 -15 c-16 -11
-39 -20 -50 -20 -15 1 -11 6 15 20 46 25 73 25 35 0z m960 2 c-3 -3 -11 0 -18
7 -9 10 -8 11 6 5 10 -3 15 -9 12 -12z m216 -5 c-10 -9 -11 -8 -5 6 3 10 9 15
12 12 3 -3 0 -11 -7 -18z m-934 7 c-3 -3 -12 -4 -19 -1 -8 3 -5 6 6 6 11 1 17
-2 13 -5z m288 -4 c3 -5 1 -10 -4 -10 -6 0 -11 5 -11 10 0 6 2 10 4 10 3 0 8
-4 11 -10z m46 -8 c-7 -2 -18 1 -23 6 -8 8 -4 9 13 5 13 -4 18 -8 10 -11z
m684 -22 c-3 -5 -16 -15 -28 -21 -21 -10 -21 -9 2 10 25 23 36 27 26 11z
m-595 -9 c0 -5 -8 -12 -17 -14 -10 -3 -4 -5 13 -6 19 -1 39 -10 53 -28 18 -20
20 -25 6 -20 -9 4 -26 7 -38 8 -21 0 -21 1 -2 8 17 7 15 9 -14 16 -19 4 -53
16 -75 26 l-41 18 58 0 c31 1 57 -3 57 -8z m245 -9 c-3 -3 -11 0 -18 7 -9 10
-8 11 6 5 10 -3 15 -9 12 -12z m-398 -8 c-3 -3 -12 -4 -19 -1 -8 3 -5 6 6 6
11 1 17 -2 13 -5z m-606 -19 c-41 -18 -42 -18 -35 0 4 9 19 15 38 15 l31 -1
-34 -14z m139 1 c0 -2 -7 -7 -16 -10 -8 -3 -12 -2 -9 4 6 10 25 14 25 6z m483
-3 c-7 -2 -19 -2 -25 0 -7 3 -2 5 12 5 14 0 19 -2 13 -5z m463 -18 c14 -13 11
-15 -22 -15 -35 0 -37 1 -18 15 24 18 22 18 40 0z m-950 -25 c-50 -16 -92 -28
-94 -25 -2 2 14 9 37 16 23 7 41 16 41 20 0 7 37 14 85 17 11 0 -20 -12 -69
-28z m1260 15 c-11 -8 -36 -15 -55 -14 l-36 1 40 13 c56 18 75 18 51 0z m-663
-22 c-7 -2 -19 -2 -25 0 -7 3 -2 5 12 5 14 0 19 -2 13 -5z m195 0 c-15 -2 -42
-2 -60 0 -18 2 -6 4 27 4 33 0 48 -2 33 -4z m-388 -18 c0 -10 -10 -15 -32 -15
-30 0 -31 1 -12 15 25 19 44 19 44 0z m173 -12 c-7 -2 -21 -2 -30 0 -10 3 -4
5 12 5 17 0 24 -2 18 -5z m87 3 c0 -2 -7 -7 -16 -10 -8 -3 -12 -2 -9 4 6 10
25 14 25 6z m-713 -31 c-25 -22 -47 -32 -47 -21 0 5 63 46 70 46 3 -1 -8 -12
-23 -25z m757 16 c3 -5 -5 -11 -19 -13 -24 -5 -32 2 -18 15 9 10 31 9 37 -2z
m189 2 c-7 -2 -19 -2 -25 0 -7 3 -2 5 12 5 14 0 19 -2 13 -5z m246 -40 c-1
-37 -1 -37 -8 -8 -7 28 -5 45 5 45 2 0 3 -17 3 -37z m134 30 c-7 -2 -21 -2
-30 0 -10 3 -4 5 12 5 17 0 24 -2 18 -5z m-1419 -18 c-25 -19 -40 -19 -24 0 7
8 20 15 28 15 13 0 12 -3 -4 -15z m1065 11 c-2 -2 -24 -6 -49 -9 -30 -4 -38
-3 -25 3 19 8 83 14 74 6z m-369 -10 c0 -2 -7 -7 -16 -10 -8 -3 -12 -2 -9 4 6
10 25 14 25 6z m211 -30 c-10 -12 -8 -13 9 -9 14 4 19 1 15 -8 -3 -9 -21 -14
-51 -14 l-45 0 26 23 c30 25 65 32 46 8z m-852 1 c-2 -1 -26 -20 -54 -42 -33
-26 -43 -31 -30 -15 29 36 58 60 74 60 8 0 12 -1 10 -3z m56 -18 c18 -8 17 -9
-4 -5 -13 3 -38 -2 -55 -10 l-31 -15 24 21 c25 22 36 23 66 9z m965 -9 c-8 -5
-19 -10 -25 -10 -5 0 -3 5 5 10 8 5 20 10 25 10 6 0 3 -5 -5 -10z m-459 -23
c-10 -9 -11 -8 -5 6 3 10 9 15 12 12 3 -3 0 -11 -7 -18z m359 19 c0 -2 -8 -10
-17 -17 -16 -13 -17 -12 -4 4 13 16 21 21 21 13z m100 -20 c0 -2 -8 -10 -17
-17 -16 -13 -17 -12 -4 4 13 16 21 21 21 13z m-266 -37 c-10 -11 -27 -25 -37
-31 -16 -8 -17 -7 -7 11 9 17 8 21 -5 21 -19 0 -58 -81 -50 -102 3 -7 -1 -31
-10 -53 l-15 -40 4 60 c2 36 12 78 25 104 20 38 26 43 50 38 15 -3 33 -2 41 4
23 14 25 11 4 -12z m285 -64 c-1 -35 -2 -37 -9 -15 -4 14 -8 39 -9 55 0 23 2
26 9 15 5 -8 9 -33 9 -55z m-1144 45 c-3 -5 -16 -15 -28 -21 -21 -10 -21 -9 2
10 25 23 36 27 26 11z m118 -25 c-36 -46 -52 -46 -17 0 14 19 31 35 36 35 5 0
-4 -16 -19 -35z m483 -12 c-10 -26 -18 -8 -9 23 5 21 8 24 11 11 2 -10 1 -25
-2 -34z m402 -13 c0 -9 -3 -7 -8 5 -5 11 -8 29 -8 40 0 16 2 15 8 -5 4 -14 8
-32 8 -40z m417 21 c4 -15 3 -21 -3 -17 -5 3 -12 17 -15 32 -5 30 8 20 18 -15z
m-845 -38 c0 -73 -8 -77 -20 -12 -5 28 -4 49 3 61 7 10 13 18 14 18 2 0 3 -30
3 -67z m464 -25 c-10 -35 -27 -19 -20 20 3 20 6 46 7 57 1 11 5 2 9 -20 5 -22
6 -48 4 -57z m241 82 c3 -5 1 -10 -4 -10 -6 0 -11 5 -11 10 0 6 2 10 4 10 3 0
8 -4 11 -10z m-1225 -3 c0 -2 -18 -21 -40 -42 -22 -21 -40 -36 -40 -32 0 5 17
24 38 42 36 34 42 38 42 32z m875 -44 c-12 -27 -27 -59 -33 -73 l-11 -25 0 25
c-1 21 51 120 63 120 1 0 -7 -21 -19 -47z m-115 13 c0 -3 -4 -8 -10 -11 -5 -3
-10 -1 -10 4 0 6 5 11 10 11 6 0 10 -2 10 -4z m270 -37 c0 -18 -18 -9 -23 12
-4 16 -3 18 9 8 8 -6 14 -15 14 -20z m-253 4 c1 -20 -28 -105 -33 -100 -2 2 2
25 10 50 8 26 12 47 9 47 -2 0 -1 5 2 10 9 14 12 12 12 -7z m-119 -78 c-3 -19
-4 -19 -16 3 -8 13 -10 32 -6 45 7 22 7 22 16 -3 5 -13 7 -33 6 -45z m-658 5
c-12 -16 -24 -30 -26 -30 -7 0 5 20 24 43 24 27 25 20 2 -13z m60 2 c0 -10 -7
-27 -15 -38 -13 -17 -13 -15 -3 19 12 41 18 47 18 19z m1005 -24 c6 -24 3 -35
-11 -45 -16 -12 -16 -13 -1 -13 25 0 21 -27 -5 -34 -40 -10 -78 -7 -78 8 0 20
21 80 33 91 6 7 7 -4 2 -30 -8 -51 7 -35 24 23 13 48 26 48 36 0z m-137 -17
c3 -28 6 -30 18 -20 13 11 15 8 12 -21 -2 -27 -9 -35 -32 -43 -22 -7 -31 -7
-34 2 -2 6 -19 11 -38 11 l-34 0 25 49 c34 68 78 80 83 22z m-738 -28 c0 -9 7
-25 17 -35 9 -10 11 -18 5 -18 -6 0 -17 -3 -26 -6 -13 -5 -16 2 -16 35 0 23 5
41 10 41 6 0 10 -8 10 -17z m980 -50 c0 -15 -26 -18 -35 -3 -3 6 -3 20 1 32 6
21 7 21 20 3 8 -10 14 -25 14 -32z m-60 23 c0 -3 -4 -8 -10 -11 -5 -3 -10 -1
-10 4 0 6 5 11 10 11 6 0 10 -2 10 -4z m-1138 -42 c-7 -36 -22 -39 -22 -5 0
22 4 31 13 28 6 -2 10 -13 9 -23z m134 -21 c-10 -10 -19 5 -10 18 6 11 8 11
12 0 2 -7 1 -15 -2 -18z m212 -43 c6 -22 12 -44 12 -50 0 -15 -42 -12 -64 5
-18 13 -18 16 -2 50 22 46 38 44 54 -5z m-300 -4 c3 -20 0 -27 -10 -24 -7 3
-14 17 -16 32 -3 20 0 27 10 24 7 -3 14 -17 16 -32z m384 9 c-2 -14 2 -35 11
-48 14 -22 14 -22 -27 -18 -27 3 -33 6 -18 9 19 3 21 6 11 18 -8 10 -8 14 0
14 6 0 11 11 11 25 0 14 4 25 9 25 4 0 6 -11 3 -25z m73 -25 c18 -36 18 -37 0
-44 -8 -3 -14 -2 -13 2 1 4 -3 17 -10 30 -11 19 -9 42 3 42 3 0 11 -13 20 -30z
m25 26 c0 -3 -4 -8 -10 -11 -5 -3 -10 -1 -10 4 0 6 5 11 10 11 6 0 10 -2 10
-4z m-680 -183 c0 -5 -5 -15 -10 -23 -9 -13 -11 -13 -19 0 -5 8 -7 18 -5 22 6
10 34 11 34 1z m160 -543 c12 -8 12 -10 -5 -9 -11 0 -29 4 -40 9 -18 8 -18 9
5 9 14 0 32 -4 40 -9z m-40 -40 c-13 -8 -12 -10 3 -10 9 0 17 -4 17 -9 0 -5
-13 -4 -30 2 -29 11 -24 27 10 27 13 0 13 -1 0 -10z m955 -220 c3 -5 1 -10 -4
-10 -6 0 -11 5 -11 10 0 6 2 10 4 10 3 0 8 -4 11 -10z m22 -22 c-3 -7 -5 -2
-5 12 0 14 2 19 5 13 2 -7 2 -19 0 -25z"/>
<path d="M605 1745 c-16 -7 -23 -14 -14 -14 8 -1 24 6 35 14 24 18 18 18 -21
0z"/>
<path d="M662 1745 l-23 -13 34 -21 c45 -27 125 -52 133 -40 3 5 -2 10 -10 10
-9 1 -20 3 -26 4 -5 1 -15 3 -20 4 -6 0 -18 17 -27 36 -18 38 -25 40 -61 20z"/>
<path d="M818 1633 c6 -2 18 -2 25 0 6 3 1 5 -13 5 -14 0 -19 -2 -12 -5z"/>
<path d="M769 1563 c-13 -16 -12 -17 4 -4 9 7 17 15 17 17 0 8 -8 3 -21 -13z"/>
<path d="M782 1515 c-7 -14 -12 -34 -12 -45 0 -10 -4 -21 -9 -24 -5 -3 -14
-28 -21 -56 -10 -43 -10 -52 4 -66 11 -10 14 -24 10 -37 -6 -19 -5 -20 9 -9
17 14 17 33 -1 54 -8 11 -6 36 12 109 13 51 23 95 21 97 -1 1 -7 -9 -13 -23z"/>
<path d="M710 1485 c-7 -9 -10 -18 -7 -21 3 -3 10 4 17 15 13 25 8 27 -10 6z"/>
<path d="M675 1359 c-4 -6 -5 -12 -2 -15 2 -3 7 2 10 11 7 17 1 20 -8 4z"/>
<path d="M842 1330 c0 -19 2 -27 5 -17 2 9 2 25 0 35 -3 9 -5 1 -5 -18z"/>
<path d="M717 1313 c-4 -3 -7 -11 -7 -17 0 -6 5 -5 12 2 6 6 9 14 7 17 -3 3
-9 2 -12 -2z"/>
<path d="M836 1262 c-3 -5 1 -9 9 -9 8 0 15 4 15 9 0 4 -4 8 -9 8 -6 0 -12 -4
-15 -8z"/>
<path d="M780 1230 c0 -16 4 -30 8 -30 5 0 7 14 4 30 -2 17 -6 30 -8 30 -2 0
-4 -13 -4 -30z"/>
<path d="M10 1224 c0 -8 5 -12 10 -9 6 4 8 11 5 16 -9 14 -15 11 -15 -7z"/>
<path d="M6 1159 c-7 -46 3 -119 16 -119 6 0 23 -9 39 -20 57 -42 130 9 79 55
-11 10 -20 24 -20 32 0 7 -4 13 -9 13 -5 0 -11 9 -14 19 -2 11 -23 28 -45 39
l-40 19 -6 -38z"/>
<path d="M112 1156 c1 -10 8 -17 13 -17 15 1 12 24 -3 29 -9 3 -13 -2 -10 -12z"/>
<path d="M1450 1079 c-35 -5 -38 -6 -14 -7 17 -1 46 -5 63 -8 18 -4 31 -2 31
4 0 14 -28 18 -80 11z"/>
<path d="M1720 1000 c0 -5 5 -10 11 -10 5 0 7 5 4 10 -3 6 -8 10 -11 10 -2 0
-4 -4 -4 -10z"/>
<path d="M1705 931 c4 -46 2 -59 -19 -85 -12 -17 -28 -53 -35 -81 -29 -121
-40 -179 -35 -184 3 -3 7 5 11 17 3 12 8 22 12 22 15 -1 29 -17 33 -40 4 -20
6 -17 13 18 4 23 11 42 16 42 5 0 9 10 10 23 0 12 3 16 6 10 2 -7 12 -13 20
-13 11 0 13 5 8 18 -9 21 -18 72 -9 55 10 -22 24 -14 24 15 1 15 7 45 15 67
l14 40 -34 -40 c-19 -22 -40 -52 -46 -67 -15 -37 -39 -36 -39 0 0 34 25 72 48
73 9 0 12 3 6 5 -9 4 -8 13 3 34 12 25 12 36 2 67 -21 61 -30 62 -24 4z"/>
<path d="M510 936 c0 -9 5 -16 10 -16 6 0 10 4 10 9 0 6 -4 13 -10 16 -5 3
-10 -1 -10 -9z"/>
<path d="M1061 906 c11 -9 69 -14 69 -6 0 6 -16 10 -37 10 -20 0 -34 -2 -32
-4z"/>
<path d="M1180 900 c0 -6 7 -10 15 -10 8 0 15 2 15 4 0 2 -7 6 -15 10 -8 3
-15 1 -15 -4z"/>
<path d="M1586 797 c3 -10 9 -15 12 -12 3 3 0 11 -7 18 -10 9 -11 8 -5 -6z"/>
<path d="M1017 733 c-4 -3 -7 -11 -7 -17 0 -6 5 -5 12 2 6 6 9 14 7 17 -3 3
-9 2 -12 -2z"/>
<path d="M1860 730 c-7 -4 -20 -6 -28 -2 -9 3 -13 1 -9 -5 3 -5 -10 -17 -30
-27 -34 -16 -35 -17 -18 -36 10 -11 14 -20 10 -20 -5 0 13 -14 38 -31 26 -17
50 -35 53 -41 7 -10 -70 -6 -135 8 -38 8 -50 -4 -52 -51 l-1 -30 -8 30 c-5 20
-8 -9 -9 -85 -1 -63 -4 -157 -7 -208 l-5 -93 28 15 c22 11 142 102 163 123 3
3 -6 2 -19 -2 -15 -5 -21 -4 -17 3 3 6 21 14 39 17 17 4 47 23 65 41 29 30 32
38 26 73 -4 22 -3 57 0 77 l7 37 53 -6 c44 -4 54 -2 64 14 10 15 9 17 -5 12
-10 -4 -14 -2 -10 4 4 6 -5 14 -20 18 -17 4 -29 2 -31 -4 -5 -16 -62 -14 -62
3 0 34 23 76 42 76 10 0 16 5 13 10 -3 6 -27 10 -53 10 -42 0 -84 13 -72 22
46 35 60 38 86 22 23 -16 26 -16 42 -1 15 16 14 17 -16 17 -20 0 -31 4 -27 10
8 13 -1 13 -26 0 -12 -7 -25 -7 -37 -1 -10 5 -24 6 -32 1z m63 -226 c-6 -16
-33 -6 -33 11 0 7 3 21 7 30 5 15 8 14 18 -6 7 -13 11 -29 8 -35z m-129 -26
c-5 -8 -2 -9 10 -5 9 4 15 3 12 -2 -3 -4 7 -8 22 -8 15 0 36 -3 47 -7 16 -6
17 -6 5 3 -19 14 -5 14 21 1 14 -8 18 -20 16 -45 -1 -19 -6 -35 -12 -35 -13 1
-52 30 -39 30 5 0 -4 7 -20 15 -16 9 -38 13 -49 9 -15 -5 -19 -3 -14 10 13 32
-14 26 -51 -13 -49 -52 -62 -52 -62 -1 0 38 1 40 25 34 16 -4 25 -2 25 6 0 7
6 10 13 7 6 -2 21 -1 32 4 27 10 27 11 19 -3z m-26 -120 c-2 -6 -15 -18 -28
-27 l-24 -16 18 28 c18 27 41 38 34 15z m22 -33 c-47 -25 -71 -32 -54 -16 15
16 68 41 84 40 8 0 -5 -11 -30 -24z m69 1 c-2 -2 -24 -13 -49 -25 l-45 -22 28
26 c15 14 38 25 49 25 12 0 19 -2 17 -4z"/>
<path d="M106 697 c3 -10 9 -15 12 -12 3 3 0 11 -7 18 -10 9 -11 8 -5 -6z"/>
<path d="M1745 640 c-3 -5 -1 -10 4 -10 6 0 11 5 11 10 0 6 -2 10 -4 10 -3 0
-8 -4 -11 -10z"/>
<path d="M1032 629 c2 -6 22 -21 43 -33 22 -11 41 -24 43 -28 7 -15 27 -7 62
22 25 22 31 33 23 41 -9 9 -18 6 -39 -10 -33 -26 -54 -27 -87 -1 -28 22 -51
26 -45 9z"/>
<path d="M1065 470 c-3 -4 14 -10 38 -12 40 -5 56 -3 46 6 -10 8 -79 14 -84 6z"/>
<path d="M1993 451 c-18 -16 -33 -37 -33 -47 1 -16 5 -14 26 11 24 29 48 65
42 65 -2 0 -18 -13 -35 -29z"/>
<path d="M903 453 c9 -2 23 -2 30 0 6 3 -1 5 -18 5 -16 0 -22 -2 -12 -5z"/>
<path d="M993 443 c9 -2 23 -2 30 0 6 3 -1 5 -18 5 -16 0 -22 -2 -12 -5z"/>
<path d="M1293 443 c9 -2 25 -2 35 0 9 3 1 5 -18 5 -19 0 -27 -2 -17 -5z"/>
<path d="M1061 436 c2 -2 20 -6 39 -10 25 -4 31 -3 20 4 -14 9 -69 15 -59 6z"/>
<path d="M1158 433 c12 -2 30 -2 40 0 9 3 -1 5 -23 4 -22 0 -30 -2 -17 -4z"/>
<path d="M260 415 c0 -8 5 -15 10 -15 6 0 10 7 10 15 0 8 -4 15 -10 15 -5 0
-10 -7 -10 -15z"/>
<path d="M1038 358 c9 -9 179 -14 188 -6 3 4 -39 8 -95 10 -55 2 -97 0 -93 -4z"/>
<path d="M635 318 c-10 -25 -3 -39 14 -29 10 6 11 13 3 27 -10 18 -11 18 -17
2z"/>
<path d="M1606 199 c-2 -8 -9 -29 -15 -48 -14 -42 -14 -41 3 -41 10 0 17 16
22 45 6 44 -1 74 -10 44z"/>
<path d="M1533 154 c-3 -8 -1 -20 6 -27 8 -8 11 -4 11 16 0 30 -7 35 -17 11z"/>
<path d="M1540 100 c0 -5 5 -10 10 -10 6 0 10 5 10 10 0 6 -4 10 -10 10 -5 0
-10 -4 -10 -10z"/>
</g>
</svg>
